<svg width="36" height="36" viewBox="0 0 36 36" fill="none" xmlns="http://www.w3.org/2000/svg">
<path fill-rule="evenodd" clip-rule="evenodd" d="M18 1.5C27.1127 1.5 34.5 8.8873 34.5 18C34.5 27.1127 27.1127 34.5 18 34.5C8.8873 34.5 1.5 27.1127 1.5 18C1.5 8.8873 8.8873 1.5 18 1.5ZM18 3.15C9.79857 3.15 3.15 9.79857 3.15 18C3.15 26.2014 9.79857 32.85 18 32.85C26.2014 32.85 32.85 26.2014 32.85 18C32.85 9.79857 26.2014 3.15 18 3.15ZM18 19.425C22.5978 19.425 26.325 23.1522 26.325 27.75C26.325 28.2056 25.9556 28.575 25.5 28.575C25.0444 28.575 24.675 28.2056 24.675 27.75C24.675 24.0635 21.6865 21.075 18 21.075C14.3135 21.075 11.325 24.0635 11.325 27.75C11.325 28.2056 10.9556 28.575 10.5 28.575C10.0444 28.575 9.675 28.2056 9.675 27.75C9.675 23.1522 13.4022 19.425 18 19.425ZM18 7.875C20.6924 7.875 22.875 10.0576 22.875 12.75C22.875 15.4424 20.6924 17.625 18 17.625C15.3076 17.625 13.125 15.4424 13.125 12.75C13.125 10.0576 15.3076 7.875 18 7.875ZM18 9.525C16.2189 9.525 14.775 10.9689 14.775 12.75C14.775 14.5311 16.2189 15.975 18 15.975C19.7811 15.975 21.225 14.5311 21.225 12.75C21.225 10.9689 19.7811 9.525 18 9.525Z" fill="black" fill-opacity="0.58"/>
</svg>
